<svg width="40" height="40" viewBox="0 0 40 40" fill="none" xmlns="http://www.w3.org/2000/svg">
<g clip-path="url(#clip0)">
<path d="M1.39308 12.0897C2.16262 12.0897 2.78616 11.466 2.78616 10.6966V4.75689L11.7585 13.7274C12.0306 13.9993 12.3871 14.1353 12.7435 14.1353C13.1002 14.1353 13.4568 13.9993 13.7287 13.7272C14.2728 13.1832 14.2728 12.3011 13.7285 11.7572L4.75579 2.78652H10.6968C11.4662 2.78652 12.0899 2.16279 12.0899 1.39344C12.0899 0.624087 11.4664 0.000358582 10.6968 0.000358582H1.39308C0.623543 0.000358582 0 0.624087 0 1.39344V10.6968C0 11.466 0.623543 12.0897 1.39308 12.0897Z" fill="#BA54F5"/>
<path d="M38.6069 27.9103C37.8374 27.9103 37.2138 28.534 37.2138 29.3034V35.2433L27.9653 25.9947C27.421 25.4507 26.5391 25.4507 25.9951 25.9947C25.451 26.5387 25.451 27.4208 25.9951 27.9647L35.2435 37.2131H29.3039C28.5344 37.2131 27.9108 37.8368 27.9108 38.6062C27.9108 39.3755 28.5344 39.9992 29.3039 39.9992H38.6071C39.3766 39.9992 40.0002 39.3755 40.0002 38.6062V29.3034C40 28.534 39.3763 27.9103 38.6069 27.9103Z" fill="#BA54F5"/>
<path d="M12.0348 25.9947L2.78714 35.2431V29.3034C2.78714 28.534 2.1636 27.9103 1.39406 27.9103C0.62452 27.9103 0.000976562 28.534 0.000976562 29.3034V38.6065C0.000976562 39.3759 0.62452 39.9996 1.39406 39.9996H10.6969C11.4662 39.9996 12.0899 39.3759 12.0899 38.6065C12.0899 37.8372 11.4664 37.2134 10.6969 37.2134H4.75714L14.005 27.9647C14.549 27.4207 14.549 26.5386 14.0048 25.9945C13.4611 25.4507 12.579 25.4507 12.0348 25.9947Z" fill="#BA54F5"/>
<path d="M38.6069 0.000358582H29.3037C28.5341 0.000358582 27.9106 0.624087 27.9106 1.39344C27.9106 2.16279 28.5341 2.78652 29.3037 2.78652H35.2436L26.2725 11.7581C25.7285 12.3022 25.7285 13.1843 26.2727 13.7283C26.5446 14.0003 26.9013 14.1362 27.2577 14.1362C27.6141 14.1362 27.9708 14.0001 28.2429 13.7282L37.214 4.75652V10.6966C37.214 11.466 37.8375 12.0897 38.607 12.0897C39.3766 12.0897 40.0001 11.466 40.0001 10.6966V1.39344C39.9999 0.623902 39.3762 0.000358582 38.6069 0.000358582Z" fill="#BA54F5"/>
</g>
<defs>
<clipPath id="clip0">
<rect width="40" height="40" fill="white"/>
</clipPath>
</defs>
</svg>
