<svg width="40" height="40" viewBox="0 0 40 40" fill="none" xmlns="http://www.w3.org/2000/svg">
<path d="M39.0775 34.5046C39.0655 34.4925 39.0535 34.4803 39.0413 34.4684L37.5014 32.9635L34.6927 30.1373L32.6103 28.0549L34.4565 26.2087C34.7957 25.8674 34.7957 25.3162 34.4565 24.9749L32.4615 22.98C32.1203 22.6407 31.5691 22.6407 31.2278 22.98L30.5103 23.6975L27.5617 20.3988L39.2513 9.93414C39.4259 9.77697 39.5299 9.55626 39.5401 9.32165L39.9601 0.930649C39.9735 0.683031 39.8813 0.44132 39.7063 0.265669C39.5307 0.0906737 39.289 -0.0015267 39.0413 0.011926L30.6503 0.423164C30.4157 0.433336 30.195 0.537348 30.0378 0.711905L20.0019 11.9641L9.94844 0.738045C9.79127 0.563488 9.57056 0.459475 9.33595 0.449304L0.94495 0.0380659C0.697332 0.0246132 0.455621 0.116814 0.27997 0.291808C0.104975 0.46746 0.0127743 0.709171 0.026227 0.956789L0.446215 9.34779C0.456386 9.5824 0.560399 9.80311 0.734956 9.96028L12.4421 20.46L9.5022 23.7061L8.78472 22.9886C8.44348 22.6494 7.89225 22.6494 7.55101 22.9886L5.55607 24.9836C5.21679 25.3248 5.21679 25.8761 5.55607 26.2173L7.40226 28.0635L5.31107 30.1372L0.9362 34.5121C-0.315341 35.7685 -0.311404 37.8017 0.945059 39.0533C1.54474 39.6506 2.35596 39.987 3.20238 39.9894C4.05242 39.9922 4.86834 39.6552 5.46857 39.0532L11.8909 32.6309L13.7371 34.4771C14.0783 34.8163 14.6295 34.8163 14.9708 34.4771L16.9657 32.4821C17.305 32.1409 17.305 31.5896 16.9657 31.2484L16.2833 30.4872L20.0019 27.171L23.7205 30.4872L23.0031 31.2047C22.6638 31.5459 22.6638 32.0971 23.0031 32.4384L24.998 34.4333C25.3392 34.7726 25.8905 34.7726 26.2317 34.4333L28.0779 32.5871L30.1603 34.6696L32.9778 37.487L34.5002 39.0094C35.7442 40.2734 37.7773 40.2896 39.0413 39.0456C40.3053 37.8017 40.3215 35.7685 39.0775 34.5046ZM29.2504 24.9398L27.7104 26.4798L24.4205 23.1899L26.2317 21.5712L29.2504 24.9398ZM2.12617 8.86656L1.77618 1.80551L8.83722 2.1555L18.7769 13.2677L16.747 15.5339L13.0721 11.859C12.705 11.5446 12.1527 11.5874 11.8384 11.9545C11.5578 12.282 11.5578 12.7651 11.8384 13.0927L15.627 16.8463L13.6146 19.1125L2.12617 8.86656ZM4.21735 37.7407C3.94414 38.0157 3.5725 38.17 3.18488 38.1694C2.38013 38.1097 1.77607 37.4089 1.83589 36.6041C1.85974 36.2822 1.98956 35.9774 2.20491 35.737L3.07989 34.862L5.12733 36.8832L4.21735 37.7407ZM6.35229 35.6058L4.33985 33.5846L5.92355 32.0009L7.98849 34.0658L6.35229 35.6058ZM9.17846 32.7796L7.11352 30.7147L8.62722 29.2972L10.6922 31.3621L9.17846 32.7796ZM14.3408 32.5434L12.5034 30.7059L9.20471 27.4073L7.40226 25.5961L8.15474 24.8436L15.1545 31.8434L14.3408 32.5434ZM14.997 29.2097L13.4571 27.6698L28.0692 13.0577C28.4362 12.7434 28.479 12.191 28.1646 11.824C27.8503 11.4569 27.298 11.4142 26.9309 11.7285C26.8967 11.7578 26.8648 11.7897 26.8354 11.824L12.2234 26.436L10.6834 24.8961L14.2708 20.8887L31.1228 2.16425L38.1839 1.81426L37.8339 8.87531L25.7417 19.6812L14.997 29.2097ZM21.2619 25.9461L23.143 24.3624L26.4942 27.7135L24.9542 29.2535L21.2619 25.9461ZM27.3867 30.6972L25.6105 32.5871L24.858 31.8346L31.8578 24.8348L32.6103 25.5873L30.7641 27.4335L27.3867 30.6972ZM29.2416 31.3184L31.3766 29.2972L32.8378 30.7584L30.7728 32.8234L29.2416 31.3184ZM33.529 35.6058L31.9453 34.0221L34.0102 31.9571L35.5939 33.5408L33.529 35.6058ZM37.7989 37.7845L37.7289 37.7407C37.1508 38.2918 36.242 38.2918 35.6639 37.7407L34.789 36.8657L36.8976 34.862L37.7726 35.737C38.3381 36.2982 38.3497 37.2089 37.7989 37.7845Z" fill="#FF8D72"/>
</svg>
